<svg width="80" height="80" viewBox="0 0 80 80" fill="none" xmlns="http://www.w3.org/2000/svg">
<circle cx="40" cy="40" r="40" fill="#F5AC2B"/>
<path d="M54 46C54 47.3125 53.125 48.4375 52 48.875V53H52.5C53.3125 53 54 53.6875 54 54.5C54 55.375 53.3125 56 52.5 56H31C28.1875 56 26 53.8125 26 51V29C26 26.25 28.1875 24 31 24H51C52.625 24 54 25.375 54 27V46ZM49 53V49H31C29.875 49 29 49.9375 29 51C29 52.125 29.875 53 31 53H49ZM51 46V27H31C29.875 27 29 27.9375 29 29V46.4375C29.5625 46.1875 30.25 46 31 46H51ZM35.5 34C34.625 34 34 33.375 34 32.5C34 31.6875 34.625 31 35.5 31H46.5C47.3125 31 48 31.6875 48 32.5C48 33.375 47.3125 34 46.5 34H35.5ZM35.5 39C34.625 39 34 38.375 34 37.5C34 36.6875 34.625 36 35.5 36H46.5C47.3125 36 48 36.6875 48 37.5C48 38.375 47.3125 39 46.5 39H35.5Z" fill="#01163F"/>
<path d="M40.2284 4.97495C54.5951 7.04439 68.2451 17.8972 72.6423 31.8722C76.8562 45.2611 71.0895 60.4416 59.9562 68.6555C48.4756 77.1222 32.6617 76.9777 21.0145 68.8916C9.7034 61.0388 3.81729 46.7194 6.67562 33.1916C9.48673 19.8888 20.6923 10.1388 34.0062 8.21106C35.759 7.95828 37.5312 7.84161 39.3006 7.83328C39.7617 7.83328 40.4645 7.7555 40.8228 7.42495C41.0701 7.19439 41.1923 6.93606 40.6923 6.93884C26.8478 6.99717 12.8367 13.7916 6.81729 26.7499C0.672843 39.9777 4.30896 56.1944 14.7395 66.1583C25.4312 76.3722 41.5895 78.5972 54.9617 72.6055C68.0451 66.7444 76.8812 53.1388 76.1451 38.6972C75.3423 22.9638 61.9506 9.71939 47.4367 5.3305C45.6562 4.79161 43.8367 4.39439 41.9951 4.1305C41.5034 4.06106 40.9284 4.16106 40.4895 4.39995C40.3451 4.47773 39.7228 4.89995 40.2312 4.97495" fill="#07144A"/>
</svg>
