<svg width="80" height="80" viewBox="0 0 80 80" fill="none" xmlns="http://www.w3.org/2000/svg">
<circle cx="40" cy="40" r="40" fill="#FDF199"/>
<path d="M45.375 42.125C45.9375 42.1875 46.1875 42.9375 45.75 43.375L43.375 45.6875L43.9375 48.9375C44 49.375 43.625 49.75 43.25 49.75C43.125 49.75 43 49.75 42.875 49.6875L39.9375 48.125L37.0625 49.6875C36.9375 49.75 36.8125 49.75 36.6875 49.75C36.3125 49.75 35.9375 49.375 36 48.9375L36.5625 45.6875L34.1875 43.375C33.75 42.9375 34 42.1875 34.5625 42.125L37.875 41.625L39.3125 38.6875C39.4375 38.4375 39.6875 38.3125 39.9375 38.3125C40.25 38.3125 40.5 38.4375 40.625 38.6875L42.0625 41.625L45.375 42.125ZM40 33C46.3125 33 51.4375 38.1875 51.4375 44.5C51.4375 50.875 46.3125 56 40 56C33.625 56 28.5 50.875 28.5 44.5C28.5 38.1875 33.625 33 40 33ZM40 53C44.625 53 48.4375 49.1875 48.4375 44.5C48.4375 39.875 44.6875 36 40 36C35.3125 36 31.5 39.875 31.5 44.5C31.5 49.1875 35.3125 53 40 53ZM32.4375 33.3125C31.625 33.875 30.875 34.5625 30.1875 35.25L24.25 26.375C23.9375 25.875 23.875 25.3125 24.125 24.8125C24.375 24.3125 24.9375 24 25.5 24H33.5C34 24 34.5 24.3125 34.75 24.8125L38.375 31.125C37.3125 31.25 36.3125 31.5 35.375 31.875L32.625 27H28.25L32.4375 33.3125ZM55.8125 24.8125C56.0625 25.3125 56 25.875 55.6875 26.375L49.75 35.25C49.0625 34.5625 48.3125 33.875 47.5 33.3125L51.6875 27H47.3125L44.5625 31.875C43.625 31.5 42.625 31.25 41.5625 31.125L45.1875 24.8125C45.4375 24.3125 45.9375 24 46.5 24H54.4375C55 24 55.5625 24.3125 55.8125 24.8125Z" fill="#01163F"/>
<path d="M40.2284 4.97495C54.5951 7.04439 68.2451 17.8972 72.6423 31.8722C76.8562 45.2611 71.0895 60.4416 59.9562 68.6555C48.4756 77.1222 32.6617 76.9777 21.0145 68.8916C9.7034 61.0388 3.81729 46.7194 6.67562 33.1916C9.48673 19.8888 20.6923 10.1388 34.0062 8.21106C35.759 7.95828 37.5312 7.84161 39.3006 7.83328C39.7617 7.83328 40.4645 7.7555 40.8228 7.42495C41.0701 7.19439 41.1923 6.93606 40.6923 6.93884C26.8478 6.99717 12.8367 13.7916 6.81729 26.7499C0.672843 39.9777 4.30896 56.1944 14.7395 66.1583C25.4312 76.3722 41.5895 78.5972 54.9617 72.6055C68.0451 66.7444 76.8812 53.1388 76.1451 38.6972C75.3423 22.9638 61.9506 9.71939 47.4367 5.3305C45.6562 4.79161 43.8367 4.39439 41.9951 4.1305C41.5034 4.06106 40.9284 4.16106 40.4895 4.39995C40.3451 4.47773 39.7228 4.89995 40.2312 4.97495" fill="#07144A"/>
</svg>
