<svg width="226" height="12" viewBox="0 0 226 12" fill="none" xmlns="http://www.w3.org/2000/svg">
<g clip-path="url(#clip0_702_2019)">
<path d="M212.577 5.62024C213.029 8.49809 209.662 9.18216 206.269 8.78789C205.765 8.73061 205.25 8.66995 204.741 8.65984C199.493 8.5419 194.23 8.53852 188.992 8.29927C164.135 7.16026 139.241 7.75672 114.362 7.68596C105.42 7.659 96.4779 8.06675 87.5408 8.33296C82.0591 8.49809 76.5825 8.75757 71.1059 8.99682C63.7536 9.32033 56.4065 9.66068 49.0542 10.0078C42.1384 10.3347 35.2174 10.6716 28.3015 11.0187C21.7286 11.3456 15.1661 11.7466 8.588 11.9892C6.68108 12.06 4.53514 11.8612 3.78172 10.3616C3.15301 9.1114 4.42602 7.99261 6.92529 7.75672C10.3858 7.42985 13.8775 7.25462 17.364 7.04569C23.9057 6.65142 30.4475 6.28073 36.9892 5.62361H34.5886C28.0937 5.62361 21.5987 5.66405 15.1037 5.61013C11.3263 5.57981 7.53841 5.45849 3.77653 5.24619C2.7841 5.18891 1.58902 4.77442 0.970701 4.27231C0.206892 3.659 0.310812 2.82665 1.93715 2.68848C3.96878 2.51325 6.02119 2.38183 8.0684 2.33802C14.6153 2.19649 21.1674 2.13246 27.7144 1.98082C36.0539 1.78874 44.3831 1.52926 52.7226 1.31696C62.1845 1.0777 71.6463 0.855291 81.1082 0.642992C86.7926 0.514938 92.4718 0.353185 98.1562 0.316117C119.771 0.171214 141.392 -0.0141271 163.007 -0.000647765C173.856 0.00609191 184.705 0.343076 195.544 0.659841C202.819 0.872141 210.077 1.28326 217.336 1.66405C219.269 1.76515 221.197 2.03137 223.083 2.33465C224.631 2.58065 225.665 3.24788 225.452 4.38014C225.234 5.5697 223.852 5.63709 222.376 5.62698C219.186 5.6034 215.99 5.62024 212.571 5.62024H212.577Z" fill="#FDF199"/>
</g>
<defs>
<clipPath id="clip0_702_2019">
<rect width="224.97" height="12" fill="white" transform="translate(0.515625)"/>
</clipPath>
</defs>
</svg>
