<svg width="565" height="169" viewBox="0 0 565 169" fill="none" xmlns="http://www.w3.org/2000/svg">
<path d="M1.95582 572.208C-2.7753 561.944 2.97349 556.528 7.37947 551.738C24.8264 532.733 42.7458 514.175 60.6779 495.63C90.1901 465.096 119.83 434.69 149.444 404.258C181.345 371.489 212.874 338.35 245.26 306.067C297.678 253.827 350.799 202.291 403.37 150.179C417.884 135.793 431.094 120.105 445.595 105.732C470.668 80.8633 496.226 56.4801 521.733 32.0457C531.335 22.8528 541.307 14.0303 551.202 5.13125C552.908 3.60393 554.946 2.20547 557.101 1.50622C559.281 0.781705 561.785 1.01157 564.146 0.8215C563.984 3.56401 564.854 7.11244 563.48 8.92103C556.243 18.5335 549.122 28.3879 540.711 36.9523C476.162 102.752 411.729 168.642 346.491 233.752C236.173 343.865 125.32 453.416 14.5935 563.121C11.221 566.468 6.77574 568.767 1.95568 572.182L1.95582 572.208Z" fill="#FFD371"/>
</svg>
