<svg width="228" height="244" viewBox="0 0 228 244" fill="none" xmlns="http://www.w3.org/2000/svg">
<path d="M287.787 -43.7068C294.536 -38.1059 291.516 -32.1874 286.157 -28.5569C285.364 -28.0148 284.55 -27.4663 283.85 -26.8158C276.613 -20.1412 269.599 -13.1993 262.117 -6.79962C226.596 23.5658 194.734 57.7167 161.467 90.4101C149.506 102.158 138.474 114.842 127.147 127.215C120.203 134.808 113.467 142.597 106.689 150.343C97.5929 160.747 88.5402 171.18 79.495 181.634C70.9876 191.469 62.4948 201.332 54.0306 211.21C45.9796 220.592 38.1009 230.12 29.863 239.327C27.4759 241.997 24.1948 244.402 19.9887 242.167C16.4813 240.305 15.786 236.215 18.6089 232.407C22.5169 227.135 26.7904 222.147 30.985 217.094C38.8505 207.608 46.7663 198.173 54.0704 188.121L50.875 191.291C42.2296 199.866 33.6705 208.528 24.9099 216.987C19.817 221.909 14.5158 226.648 9.05488 231.158C7.61149 232.345 5.13535 233.03 3.23977 232.765C0.912989 232.452 -0.726643 230.523 1.14305 228.078C3.47303 225.018 5.92426 222.025 8.55573 219.228C16.968 210.28 25.5527 201.491 33.9434 192.521C44.6339 181.097 55.1665 169.542 65.8138 158.074C77.8974 145.067 90.017 132.096 102.158 119.146C109.451 111.366 116.665 103.519 124.152 95.9348C152.615 67.085 180.998 38.1413 209.799 9.63262C224.254 -4.6766 239.416 -18.2746 254.52 -31.9024C264.656 -41.0493 275.196 -49.7473 285.672 -58.5107C288.461 -60.8449 291.595 -62.8166 294.754 -64.6537C297.34 -66.1682 300.142 -66.0964 302.277 -63.3767C304.528 -60.5267 302.832 -58.5568 300.846 -56.6303C296.549 -52.4691 292.331 -48.2139 287.78 -43.7L287.787 -43.7068Z" fill="#FFD371"/>
</svg>
