<svg width="88" height="88" viewBox="0 0 88 88" fill="none" xmlns="http://www.w3.org/2000/svg">
<g id="Logo_Out of State Investor Academy, Badge - Black 1">
<path id="Vector" d="M44.0005 85.2427C66.7782 85.2427 85.2431 66.7777 85.2431 44C85.2431 21.2223 66.7782 2.75732 44.0005 2.75732C21.2228 2.75732 2.75781 21.2223 2.75781 44C2.75781 66.7777 21.2228 85.2427 44.0005 85.2427Z" fill="#231F20"/>
<path id="Vector_2" d="M50.3045 71.1285C50.1456 71.2752 50.0332 71.4536 49.9696 71.6663C49.9061 71.879 49.9012 72.0965 49.9549 72.3239C50.0112 72.5634 50.1163 72.759 50.2654 72.913C50.4169 73.067 50.5954 73.1745 50.8032 73.2332C51.0109 73.2919 51.2261 73.2968 51.4485 73.243C51.6709 73.1892 51.8592 73.0914 52.0156 72.9448C52.1721 72.7981 52.2821 72.6245 52.3481 72.4168C52.4141 72.2114 52.4189 71.989 52.3603 71.7494C52.3065 71.5221 52.2038 71.329 52.0498 71.1676C51.8983 71.0063 51.7198 70.8963 51.5145 70.8376C51.3092 70.7765 51.0965 70.7741 50.8741 70.8279C50.6516 70.8816 50.4609 70.9794 50.3021 71.1261" fill="white"/>
<path id="Vector_3" d="M14.4951 32.2178L18.7338 34.122L19.428 32.5771L15.1918 30.6729L15.9422 29.0034L14.7176 28.4534L12.5176 33.3447L13.7422 33.8947L14.4951 32.2178Z" fill="white"/>
<path id="Vector_4" d="M12.1521 44.7578L16.799 44.6991L16.777 43.0051L12.1301 43.0638L12.1081 41.2354L10.7637 41.2525L10.8346 46.6156L12.1766 46.5985L12.1521 44.7578Z" fill="white"/>
<path id="Vector_5" d="M73.4774 36.8648C73.0252 36.9283 72.6219 37.0701 72.2675 37.2901C71.913 37.5077 71.6197 37.7839 71.3875 38.1163C71.1552 38.4488 70.9939 38.8252 70.901 39.2408C70.8081 39.6563 70.7959 40.0988 70.8619 40.5681C70.9401 41.1157 71.1063 41.5923 71.3606 41.9957C71.6148 42.399 71.9448 42.7192 72.3555 42.9539L73.167 41.7488C72.9079 41.5899 72.7026 41.4041 72.551 41.189C72.3994 40.9739 72.3041 40.7294 72.2626 40.4532C72.2283 40.2112 72.2357 39.9814 72.2846 39.7663C72.3334 39.5512 72.4239 39.3605 72.5535 39.1968C72.683 39.0305 72.8443 38.8936 73.0423 38.7812C73.2403 38.6688 73.4652 38.5954 73.7194 38.5588C73.9737 38.5221 74.2108 38.5294 74.4308 38.5808C74.6508 38.6321 74.8463 38.7201 75.0175 38.8423C75.1886 38.9645 75.3279 39.121 75.4355 39.3141C75.543 39.5072 75.6163 39.7223 75.6506 39.9668C75.6897 40.243 75.6677 40.507 75.5821 40.7539C75.4966 41.0032 75.3548 41.2379 75.1568 41.4628L76.2763 42.3917C76.6015 42.0519 76.8288 41.651 76.9559 41.1914C77.083 40.7319 77.1074 40.2283 77.0292 39.6808C76.9608 39.2114 76.8239 38.791 76.6186 38.417C76.4108 38.043 76.1517 37.7301 75.8339 37.4759C75.5186 37.2217 75.1592 37.0408 74.7559 36.9308C74.355 36.8208 73.9272 36.7988 73.475 36.8648H73.4774Z" fill="white"/>
<path id="Vector_6" d="M17.0378 40.1988L15.9794 39.5119L16.4683 37.0259L17.7101 36.7912L18.0498 35.063L11.6625 36.5077L11.3398 38.1454L16.7054 41.8952L17.0403 40.1988H17.0378ZM14.8574 38.7834L13.1267 37.659L15.1532 37.2752L14.8574 38.7834Z" fill="white"/>
<path id="Vector_7" d="M57.8078 18.9761C57.7345 19.3843 57.7418 19.7901 57.8298 20.1886C57.9178 20.5894 58.0889 20.9659 58.3407 21.3228C58.5925 21.6797 58.9151 21.9877 59.3063 22.2541C59.7023 22.523 60.1129 22.7063 60.5358 22.8041C60.9587 22.9019 61.3718 22.919 61.7751 22.8554C62.1785 22.7919 62.5574 22.6477 62.9069 22.4252C63.2565 22.2028 63.5571 21.9021 63.8138 21.5257C64.0656 21.1517 64.2269 20.763 64.2978 20.3548C64.3687 19.949 64.3589 19.5481 64.2709 19.1497C64.1805 18.7512 64.0118 18.3772 63.7625 18.0228C63.5131 17.6683 63.1905 17.3579 62.792 17.089C62.3936 16.8201 61.9854 16.6368 61.5625 16.539C61.1396 16.4412 60.7289 16.4241 60.3231 16.4926C59.9198 16.561 59.5434 16.7028 59.1938 16.9228C58.8443 17.1403 58.5436 17.4337 58.2943 17.8028C58.0425 18.1768 57.8811 18.5679 57.8078 18.9761ZM59.4138 19.4186C59.4627 19.201 59.5629 18.9834 59.7096 18.7659C59.8563 18.5483 60.02 18.3748 60.2034 18.2477C60.3867 18.1206 60.5798 18.035 60.7876 17.9934C60.9954 17.9519 61.2031 17.9519 61.4109 17.9934C61.6187 18.0374 61.8167 18.123 62.0074 18.2501C62.1956 18.3772 62.3496 18.5288 62.4694 18.7048C62.5891 18.8808 62.6649 19.0714 62.7016 19.2792C62.7383 19.487 62.7309 19.6997 62.6845 19.9172C62.6356 20.1372 62.5403 20.3548 62.3936 20.5723C62.2469 20.7899 62.0807 20.961 61.8974 21.0881C61.7116 21.2152 61.5185 21.3008 61.3131 21.3423C61.1078 21.3863 60.9025 21.3863 60.6947 21.3423C60.4869 21.2983 60.2889 21.2128 60.0983 21.0857C59.91 20.9586 59.756 20.807 59.6363 20.631C59.5189 20.455 59.4383 20.2619 59.4016 20.0541C59.3625 19.8463 59.3698 19.6337 59.4187 19.4161L59.4138 19.4186Z" fill="white"/>
<path id="Vector_8" d="M68.5877 32.5406L69.8515 32.521L70.8317 34.8554L69.9322 35.7428L70.6142 37.3683L75.1095 32.6041L74.4642 31.0666L67.918 30.9468L68.5877 32.5406ZM71.1862 32.499L73.2493 32.4672L71.7802 33.9168L71.1862 32.499Z" fill="white"/>
<path id="Vector_9" d="M63.8974 25.9306L65.0732 24.8575L65.6916 25.5346L65.2467 27.4095L66.469 28.7491L66.9896 26.5222C67.3636 26.6762 67.7303 26.73 68.0921 26.6713C68.4759 26.6102 68.8401 26.4244 69.1799 26.114C69.5123 25.8109 69.7299 25.4662 69.8325 25.0849C69.9352 24.7011 69.9181 24.3026 69.7787 23.8895C69.6394 23.4764 69.3876 23.0658 69.0185 22.6624L67.1803 20.6458L62.7559 24.6815L63.8974 25.9331V25.9306ZM68.3267 24.2293C68.3292 24.4664 68.2314 24.6742 68.0334 24.8551C67.8281 25.0433 67.6081 25.124 67.3734 25.0971C67.1412 25.0702 66.9041 24.926 66.667 24.6644L66.0387 23.9751L67.3343 22.7944L67.9625 23.4838C68.1996 23.7453 68.3219 23.9946 68.3243 24.2293H68.3267Z" fill="white"/>
<path id="Vector_10" d="M23.3743 26.5859L22.3183 25.7963L20.4409 28.3019L19.5634 27.6443L21.1596 25.5152L20.1549 24.7623L18.5587 26.8915L17.7569 26.2901L19.5683 23.875L18.5147 23.083L15.7012 26.8352L20.4947 30.4261L23.3743 26.5859Z" fill="white"/>
<path id="Vector_11" d="M45.4266 17.4532L45.3778 16.1357L42.2489 16.253L42.2073 15.1579L44.8669 15.0601L44.8204 13.8037L42.1609 13.9015L42.1242 12.9017L45.1431 12.7892L45.0942 11.4717L40.4082 11.6452L40.6306 17.6317L45.4266 17.4532Z" fill="white"/>
<path id="Vector_12" d="M23.3922 18.5281L22.084 19.6042L25.8885 24.2294L27.1968 23.1533L23.3922 18.5281Z" fill="white"/>
<path id="Vector_13" d="M30.2504 14.3245L28.7935 15.1189L30.3164 17.9202L26.4786 16.3778L25.2539 17.0427L28.1139 22.3056L29.5659 21.516L28.0406 18.7122L31.8881 20.2522L33.1128 19.5874L30.2504 14.3245Z" fill="white"/>
<path id="Vector_14" d="M63.2088 62.8662L65.1717 65.252L62.4021 64.2962L61.8203 64.7753L62.2726 67.7527L60.2437 65.3082L59.041 66.2958L62.8519 70.9158L63.9299 70.0309L63.3188 66.0513L67.1395 67.3884L68.2175 66.5036L64.4115 61.8787L63.2088 62.8662Z" fill="white"/>
<path id="Vector_15" d="M56.56 67.5205L55.0176 68.2196L55.9 70.163L55.4062 74.6216L56.9022 73.9421L57.2151 71.1847L59.4885 72.7663L61.1238 72.0232L57.4571 69.4956L56.56 67.5205Z" fill="white"/>
<path id="Vector_16" d="M57.9975 15.8938L58.4644 14.6349L53.4337 12.7722L52.9668 14.0336L54.6926 14.6716L53.0817 19.0275L54.6706 19.6167L56.2815 15.2582L57.9975 15.8938Z" fill="white"/>
<path id="Vector_17" d="M48.5998 13.3271C48.6731 13.2587 48.7855 13.2098 48.9347 13.1829C49.0838 13.156 49.2744 13.1584 49.5042 13.1975C49.7633 13.2391 50.0249 13.3198 50.2889 13.4371C50.5529 13.5544 50.812 13.7158 51.0687 13.9187L51.7751 12.7673C51.516 12.5473 51.2055 12.3615 50.8462 12.2149C50.4869 12.0682 50.1104 11.9631 49.7242 11.8995C49.1449 11.8067 48.6462 11.814 48.2282 11.9264C47.8102 12.0389 47.4851 12.2222 47.2455 12.4789C47.0084 12.7355 46.8618 13.0387 46.8055 13.3858C46.7542 13.7011 46.7738 13.9724 46.8618 14.1998C46.9498 14.4271 47.0818 14.6227 47.2578 14.784C47.4338 14.9453 47.6367 15.0847 47.8664 15.202C48.0962 15.3193 48.3235 15.422 48.5484 15.5075C48.7733 15.5931 48.9835 15.6787 49.1742 15.7642C49.3649 15.8498 49.5164 15.9402 49.6289 16.0355C49.7413 16.1309 49.7853 16.2433 49.7658 16.3729C49.7487 16.4731 49.7022 16.5562 49.6264 16.6198C49.5507 16.6833 49.4407 16.7224 49.2964 16.7395C49.1522 16.7567 48.9615 16.7469 48.7244 16.7078C48.3798 16.6515 48.0449 16.5415 47.7173 16.3753C47.3898 16.2091 47.1062 16.0209 46.8691 15.8107L46.1211 16.9644C46.368 17.1942 46.7053 17.4069 47.1331 17.6C47.5609 17.7931 48.0204 17.93 48.5093 18.0082C49.096 18.1035 49.5971 18.0938 50.0127 17.9813C50.4282 17.8689 50.7582 17.6855 51.0002 17.4264C51.2422 17.1673 51.3889 16.8666 51.4451 16.522C51.494 16.2115 51.4744 15.9451 51.384 15.7202C51.2935 15.4953 51.1591 15.3022 50.9782 15.1433C50.7973 14.9844 50.5969 14.8475 50.372 14.7327C50.1471 14.6178 49.9198 14.5175 49.69 14.4271C49.4578 14.3391 49.2475 14.2535 49.0593 14.1729C48.8687 14.0922 48.7195 14.0042 48.6071 13.9089C48.4947 13.8135 48.4507 13.6962 48.4727 13.5618C48.4873 13.4713 48.5313 13.3931 48.6071 13.3222L48.5998 13.3271Z" fill="white"/>
<path id="Vector_18" d="M71.3929 43.1885L71.2364 44.9094L72.3609 45.4838L72.1311 48.0065L70.9211 48.3683L70.7598 50.1234L76.9638 48.026L77.1153 46.3638L71.3904 43.186L71.3929 43.1885ZM73.5513 46.0925L75.3895 47.0311L73.412 47.6227L73.5513 46.0925Z" fill="white"/>
<path id="Vector_19" d="M64.9902 61.011L66.0633 61.7761L67.882 59.2265L68.7718 59.8621L67.2293 62.0278L68.2536 62.7587L69.796 60.5905L70.6125 61.1723L68.8598 63.6314L69.9329 64.3965L72.6536 60.5783L67.7769 57.1023L64.9902 61.011Z" fill="white"/>
<path id="Vector_20" d="M69.5049 53.2425C69.2654 53.8536 69.17 54.4379 69.2165 54.9952C69.2629 55.5525 69.4414 56.0439 69.7567 56.4692C70.0696 56.8945 70.5145 57.2196 71.0889 57.4445C71.6585 57.667 72.2011 57.7281 72.7169 57.6254C73.2327 57.5252 73.6971 57.2856 74.1103 56.9068C74.5209 56.5279 74.846 56.0341 75.0856 55.423L76.1171 52.7854L70.5389 50.605L69.5074 53.2425H69.5049ZM70.7956 53.6556L71.1794 52.6754L74.2398 53.8708L73.856 54.851C73.7289 55.1761 73.5578 55.4328 73.3451 55.621C73.13 55.8092 72.8831 55.9265 72.6069 55.9705C72.3283 56.0145 72.0276 55.9754 71.7049 55.8483C71.392 55.7261 71.1451 55.5525 70.9667 55.3301C70.7883 55.1076 70.6831 54.8534 70.6538 54.5699C70.6245 54.2863 70.6734 53.9808 70.798 53.6581L70.7956 53.6556Z" fill="white"/>
<path id="Vector_21" d="M20.3726 57.1412L18.593 58.1654L17.2803 55.8799L16.1437 56.5325L17.4563 58.8181L16.3221 59.4683L14.831 56.8723L13.6895 57.5299L16.0239 61.595L21.2159 58.6103L20.3726 57.1412Z" fill="white"/>
<path id="Vector_22" d="M23.9937 61.771C23.6637 61.4239 23.3019 61.1575 22.9108 60.9717C22.5197 60.7859 22.1188 60.6808 21.7106 60.6563C21.3024 60.6343 20.9039 60.693 20.5153 60.8348C20.1266 60.9766 19.7673 61.2063 19.4373 61.5217C19.1122 61.8321 18.8702 62.1792 18.7162 62.5606C18.5597 62.9419 18.4839 63.3379 18.4864 63.7437C18.4888 64.1519 18.5744 64.5552 18.7431 64.9537C18.9117 65.3521 19.1611 65.7261 19.4935 66.0708C19.8259 66.4179 20.1853 66.6843 20.5764 66.8701C20.9675 67.0559 21.3684 67.1586 21.7766 67.1781C22.1848 67.1977 22.5833 67.1366 22.9719 66.9997C23.3606 66.8603 23.7151 66.6379 24.0377 66.3299C24.3628 66.0195 24.6048 65.6699 24.7637 65.2861C24.9226 64.9023 25.0008 64.5063 24.9984 64.0957C24.9984 63.6875 24.9104 63.2817 24.7417 62.8808C24.5706 62.4799 24.3213 62.1083 23.9937 61.7661V61.771ZM23.2897 64.5186C23.1944 64.7215 23.0526 64.9121 22.8619 65.093C22.6713 65.2739 22.4757 65.4083 22.2704 65.4939C22.0651 65.5795 21.8573 65.621 21.6446 65.6186C21.4319 65.6161 21.2291 65.5721 21.0359 65.4841C20.8428 65.3961 20.6668 65.2715 20.5079 65.1052C20.3491 64.9415 20.2317 64.7581 20.1535 64.5626C20.0753 64.3646 20.0411 64.1617 20.0484 63.9515C20.0582 63.7412 20.1071 63.5359 20.2024 63.3306C20.2953 63.1277 20.4371 62.9346 20.6253 62.7537C20.8159 62.5728 21.0139 62.4383 21.2217 62.3552C21.4295 62.2721 21.6373 62.2281 21.8475 62.2306C22.0577 62.2306 22.2582 62.2746 22.4537 62.3626C22.6468 62.4506 22.8228 62.5752 22.9817 62.7415C23.1406 62.9052 23.2579 63.0861 23.3362 63.2841C23.4144 63.4821 23.4511 63.685 23.4437 63.8977C23.4364 64.1103 23.3875 64.3157 23.2922 64.5186H23.2897Z" fill="white"/>
<path id="Vector_23" d="M14.4623 52.2012C14.6456 52.0399 14.7825 51.8492 14.873 51.6268C14.9634 51.4068 15.0245 51.1672 15.0538 50.9105C15.0856 50.6539 15.1003 50.4045 15.1027 50.165C15.1027 49.923 15.1125 49.6981 15.1272 49.4879C15.1418 49.2801 15.1736 49.1041 15.225 48.9672C15.2763 48.8303 15.3667 48.7472 15.4938 48.7228C15.5941 48.7032 15.687 48.7179 15.7725 48.7668C15.8581 48.8181 15.9338 48.9061 15.9998 49.0356C16.0658 49.1652 16.1221 49.3485 16.1685 49.5832C16.2345 49.9254 16.2492 50.2774 16.2076 50.6441C16.1661 51.0108 16.0878 51.3408 15.9705 51.6365L17.3125 51.9396C17.4421 51.6292 17.5252 51.2381 17.557 50.7712C17.5887 50.3019 17.557 49.8252 17.4616 49.3388C17.3467 48.757 17.1658 48.2901 16.9165 47.9381C16.6672 47.5861 16.3787 47.3416 16.0536 47.2048C15.7261 47.0679 15.3936 47.0336 15.0514 47.1021C14.7434 47.1632 14.499 47.2756 14.3205 47.437C14.1396 47.6008 14.0076 47.7939 13.9196 48.0163C13.8341 48.2388 13.7754 48.4759 13.7461 48.7252C13.7167 48.9745 13.6996 49.2239 13.6972 49.4708C13.6947 49.7176 13.6874 49.945 13.6776 50.1503C13.6678 50.3556 13.6385 50.5268 13.5872 50.6661C13.5358 50.8054 13.443 50.8861 13.3085 50.913C13.2181 50.9301 13.1301 50.9154 13.0396 50.869C12.9492 50.8225 12.8661 50.7345 12.7878 50.605C12.7096 50.4754 12.6485 50.2945 12.6021 50.0672C12.5507 49.8105 12.5361 49.5368 12.5532 49.2483C12.5727 48.9599 12.6314 48.6592 12.7341 48.3488L11.4092 48.0872C11.2918 48.4074 11.2258 48.7619 11.2136 49.1505C11.2014 49.5392 11.2307 49.9279 11.3065 50.3141C11.419 50.891 11.6023 51.3554 11.8516 51.7074C12.101 52.0594 12.387 52.3014 12.7096 52.4359C13.0323 52.5703 13.3672 52.6021 13.7143 52.5336C14.0272 52.4725 14.2765 52.3601 14.4598 52.1988L14.4623 52.2012Z" fill="white"/>
<path id="Vector_24" d="M30.133 66.792L27.9134 70.8742L26.305 69.9991L25.6621 71.1798L30.375 73.7416L31.0179 72.5633L29.4021 71.6833L31.6217 67.6035L30.133 66.792Z" fill="white"/>
<path id="Vector_25" d="M36.4889 69.3293C35.6455 69.0849 34.9171 69.1264 34.3011 69.454C33.6875 69.7815 33.2573 70.3682 33.0104 71.2189L32.084 74.4162L33.6949 74.8831L34.6067 71.7346C34.7484 71.2457 34.944 70.9231 35.1958 70.7642C35.4475 70.6053 35.7409 70.576 36.0807 70.6737C36.4204 70.7715 36.6551 70.9549 36.7847 71.2262C36.9142 71.4951 36.9093 71.874 36.7675 72.3604L35.8558 75.5089L37.4838 75.9806L38.4078 72.7833C38.6547 71.9351 38.6082 71.2091 38.2684 70.6053C37.9287 70.0015 37.3347 69.5786 36.4864 69.3317L36.4889 69.3293Z" fill="white"/>
<path id="Vector_26" d="M36.3555 16.4242L33.7839 13.0631L32.0215 13.5275L36.0206 18.6682L37.6339 18.2429L38.5922 11.7969L36.969 12.2247L36.3555 16.4242Z" fill="white"/>
<path id="Vector_27" d="M45.6631 71.2628C45.3698 70.9768 45.0202 70.7544 44.6144 70.5955C44.2087 70.4366 43.7687 70.3535 43.2944 70.3486C42.8153 70.3437 42.3729 70.4146 41.9647 70.5637C41.5589 70.7128 41.202 70.9255 40.8989 71.2017C40.5958 71.478 40.3587 71.8031 40.19 72.182C40.0189 72.5584 39.9333 72.9764 39.926 73.4311C39.9211 73.8808 39.9993 74.2964 40.1631 74.6753C40.3269 75.0542 40.5542 75.3842 40.8476 75.6677C41.1409 75.9513 41.488 76.1713 41.8913 76.3302C42.2947 76.4891 42.7347 76.5722 43.2138 76.5771C43.6929 76.582 44.1353 76.5111 44.5436 76.362C44.9493 76.2128 45.3038 76.0002 45.6044 75.7215C45.9051 75.4428 46.1422 75.1177 46.3133 74.7413C46.4869 74.3673 46.5749 73.9566 46.5822 73.5117C46.5871 73.062 46.5089 72.644 46.3451 72.2626C46.1813 71.8813 45.954 71.5488 45.6607 71.2628H45.6631ZM44.7464 74.1864C44.6633 74.3942 44.5484 74.5726 44.3969 74.7217C44.2478 74.8708 44.0718 74.9833 43.8762 75.0615C43.6782 75.1397 43.4656 75.1764 43.2382 75.174C43.0109 75.1715 42.7982 75.13 42.6027 75.0468C42.4071 74.9637 42.2384 74.8464 42.0942 74.6948C41.95 74.5408 41.8376 74.36 41.7593 74.1522C41.6787 73.942 41.642 73.7073 41.6444 73.4457C41.6469 73.1842 41.6909 72.9495 41.7764 72.7417C41.862 72.534 41.9769 72.3555 42.126 72.2064C42.2727 72.0573 42.4462 71.9424 42.6442 71.8666C42.8422 71.7884 43.0549 71.7517 43.2822 71.7542C43.5096 71.7566 43.7222 71.8006 43.9178 71.8813C44.1133 71.9644 44.2844 72.0817 44.4311 72.2333C44.5778 72.3848 44.6902 72.5682 44.766 72.776C44.8442 72.9837 44.8809 73.2208 44.8784 73.4824C44.876 73.744 44.832 73.9786 44.7489 74.1864H44.7464Z" fill="white"/>
<path id="Vector_28" d="M53.8723 40.871V54.2348H44.8694V40.8686L49.3623 36.5762L53.8723 40.871ZM56.6956 33.5719V27.5537H50.6798L52.6574 29.5313L49.3623 32.6773L43.9821 27.5537L31.3027 39.6659V57.0606H34.1261V40.871L43.9845 31.455L47.3163 34.6304L42.0461 39.6659V57.0606H56.6932V39.6635L51.4058 34.6255L54.6496 31.5259L56.6932 33.5719H56.6956Z" fill="white"/>
</g>
</svg>
