<svg width="138" height="7" viewBox="0 0 138 7" fill="none" xmlns="http://www.w3.org/2000/svg">
<path d="M0 5.50269C0.670436 1.89038 2.02355 1.97038 3.13788 1.87807C7.55541 1.50269 11.976 1.34884 16.3966 1.20115C23.6734 0.954997 30.9502 0.770381 38.2271 0.573458C46.0641 0.364227 53.9012 -0.023465 61.7382 0.00115042C74.4214 0.0442273 87.1046 0.425766 99.7908 0.536535C103.293 0.567304 106.795 -0.0296188 110.294 0.00115042C116.347 0.0503812 122.399 0.333458 128.451 0.59192C130.729 0.690381 133.006 0.967304 135.284 1.2073C135.676 1.25038 136.092 1.40423 136.438 1.755C136.79 2.10577 137.066 2.76423 137.375 3.2873C137.023 3.90884 136.698 4.97346 136.313 5.07807C134.271 5.65038 132.214 6.30884 130.156 6.34577C114.36 6.6473 98.5663 6.99807 82.7697 6.9673C56.0564 6.91807 29.3461 6.60423 2.63276 6.35807C1.81844 6.35192 1.00106 5.835 0.00306135 5.49654L0 5.50269Z" fill="#F5AC2B"/>
</svg>
