<svg width="169" height="9" viewBox="0 0 169 9" fill="none" xmlns="http://www.w3.org/2000/svg">
<path d="M0 6.59111C0.824337 2.60086 2.48807 2.68923 3.8582 2.58726C9.28979 2.1726 14.7251 2.00266 20.1605 1.83952C29.1077 1.56761 38.055 1.36368 47.0023 1.14615C56.6383 0.91503 66.2744 0.486775 75.9105 0.513966C91.5052 0.56155 107.1 0.983007 122.698 1.10537C127.004 1.13935 131.31 0.479978 135.613 0.513966C143.054 0.568348 150.496 0.881042 157.938 1.16655C160.738 1.27531 163.539 1.5812 166.339 1.84632C166.821 1.8939 167.333 2.06384 167.758 2.45131C168.191 2.83878 168.53 3.56613 168.91 4.14394C168.477 4.8305 168.078 6.00651 167.604 6.12207C165.093 6.75425 162.564 7.48161 160.034 7.52239C140.612 7.85548 121.193 8.24295 101.77 8.20896C68.9243 8.15458 36.0826 7.8079 3.23712 7.53599C2.23587 7.52919 1.23086 6.95818 0.0037641 6.58431L0 6.59111Z" fill="#01163F"/>
</svg>
