<svg width="387" height="7" viewBox="0 0 387 7" fill="none" xmlns="http://www.w3.org/2000/svg">
<path d="M0 5.52701C1.88869 1.89874 5.70056 1.97909 8.83975 1.88637C21.2844 1.50933 33.7377 1.3548 46.1909 1.20646C66.6905 0.959218 87.1901 0.773786 107.69 0.575993C129.768 0.365837 151.845 -0.0235687 173.923 0.00115551C209.653 0.0444228 245.383 0.427648 281.121 0.538907C290.987 0.569812 300.853 -0.0297497 310.711 0.00115551C327.761 0.0506039 344.811 0.334932 361.861 0.594536C368.277 0.693433 374.693 0.97158 381.11 1.21264C382.214 1.25591 383.386 1.41043 384.361 1.76275C385.353 2.11507 386.129 2.77645 387 3.30183C386.008 3.92612 385.094 4.99544 384.007 5.10052C378.255 5.67536 372.46 6.33673 366.664 6.37382C322.164 6.67669 277.672 7.02901 233.171 6.9981C157.917 6.94865 82.6711 6.63342 7.41677 6.38618C5.12274 6.38 2.8201 5.86079 0.00862415 5.52083L0 5.52701Z" fill="#5D83FA"/>
</svg>
