<svg width="614" height="20" viewBox="0 0 614 20" fill="none" xmlns="http://www.w3.org/2000/svg">
<path d="M578.268 4.79068C579.543 7.43485 570.382 8.22098 561.133 8.0098C559.759 7.97962 558.356 7.94679 556.969 7.96052C542.671 8.08934 528.332 8.32496 514.061 8.34098C446.327 8.41381 378.521 10.0952 310.747 11.1581C286.387 11.5387 262.033 12.3218 237.691 12.9737C222.76 13.3752 207.845 13.8639 192.93 14.3338C172.906 14.9668 152.896 15.6152 132.873 16.2701C114.038 16.8864 95.189 17.5124 76.3544 18.1474C58.4538 18.7482 40.5826 19.4172 22.6665 19.9402C17.4728 20.0922 11.6238 20.0055 9.54826 18.6511C7.81627 17.522 11.2669 16.4284 18.0717 16.0966C27.4937 15.637 37.0029 15.3164 46.4975 14.9648C64.3122 14.303 82.1273 13.6631 99.9379 12.7579L93.3984 12.8668C75.7051 13.1614 58.0123 13.4934 40.3181 13.7381C30.0272 13.8813 19.7065 13.9408 9.45525 13.9149C6.75082 13.9068 3.48885 13.5772 1.7967 13.1404C-0.293499 12.6071 -0.0232375 11.8317 4.40505 11.63C9.93684 11.3756 15.5259 11.1609 21.1022 11.0274C38.9349 10.5994 56.783 10.243 74.6156 9.80561C97.3309 9.2495 120.017 8.63146 142.732 8.05663C168.504 7.40594 194.276 6.77084 220.049 6.1451C235.532 5.76871 251.001 5.36135 266.485 5.0692C325.366 3.95463 384.261 2.80238 443.145 1.83446C472.7 1.34862 502.26 1.16856 531.792 0.970243C551.612 0.836875 571.392 0.888307 591.172 0.911658C596.439 0.917594 601.695 1.07666 606.838 1.27193C611.06 1.42948 613.887 2.00038 613.324 3.05844C612.748 4.16978 608.983 4.29487 604.963 4.35244C596.272 4.4753 587.567 4.63584 578.253 4.79092L578.268 4.79068Z" fill="#5D83FA"/>
</svg>
