<svg width="32" height="22" viewBox="0 0 32 22" fill="none" xmlns="http://www.w3.org/2000/svg">
<path d="M31.6517 10.5181C29.5367 8.42314 27.2998 6.47142 25.0743 4.49647C23.2222 2.85455 21.3016 1.12743 19.057 0.0663796C18.3482 -0.270524 17.6508 0.755677 18.1386 1.33267C19.823 3.33086 21.9456 4.9418 23.8053 6.7696C24.6474 7.59444 25.4401 8.46187 26.2099 9.35253C25.0209 9.18215 23.8319 9.02725 22.6392 8.97303C20.5051 8.87622 18.3673 8.88009 16.2332 8.86073C11.7555 8.82588 13.3751 8.7949 8.89745 8.76005C4.56077 8.72907 18.5121 8.69809 14.1716 8.73294C12.1138 8.74843 10.0445 8.78715 7.99048 8.88009C5.48298 8.9924 2.77732 8.86073 0.483226 9.99149C-0.0197981 10.2393 -0.229392 11.0758 0.346038 11.3856C2.46865 12.5318 4.98377 12.3963 7.33503 12.5086C9.48812 12.6093 11.645 12.6402 13.8019 12.6674C18.2415 12.7254 4.38929 12.679 8.82886 12.648C13.1274 12.617 11.3325 12.5822 15.6311 12.5512C19.4991 12.5202 23.2146 12.2724 27.0178 11.8619C25.9431 12.6712 24.9256 13.5503 23.931 14.5184C22.3114 16.0945 20.5318 17.9378 19.8763 20.1606C19.5524 21.2565 20.8862 22.4221 21.8961 21.849C23.7252 20.815 25.0247 18.8904 26.4842 17.3879C28.0048 15.8234 29.6624 14.3712 31.3125 12.95C31.9184 12.4273 32.3224 11.1726 31.6555 10.5104L31.6517 10.5181Z" fill="white"/>
</svg>
