<svg width="64" height="63" viewBox="0 0 64 63" fill="none" xmlns="http://www.w3.org/2000/svg">
<g filter="url(#filter0_d_2258_4615)">
<path fill-rule="evenodd" clip-rule="evenodd" d="M29.5681 52.9199L29.3678 53.1201C28.101 54.387 26.4312 55 24.7991 55C23.1063 55 21.4188 54.4197 20.1192 53.1201L5.87988 38.8808C4.5803 37.5812 4 35.8937 4 34.2009C4 30.5416 6.90057 27.641 10.5598 27.641C12.4221 27.641 14.0342 28.5404 15.1227 29.6263C15.1246 29.6283 15.1266 29.6302 15.1285 29.6322L24.3093 38.7263L48.3822 2.20675L48.5978 1.99113C49.7278 0.861121 51.3498 0 53.2778 0C56.7646 0 59.8376 2.84007 59.8376 6.55983C59.8376 8.35945 59.0874 9.8924 58.0685 11.0075L29.5681 52.9199ZM55.7252 9.11846C56.3926 8.45099 56.8376 7.56103 56.8376 6.55983C56.8376 4.55743 55.1689 3 53.2778 3C52.2766 3 51.3866 3.44498 50.7192 4.11245L24.7991 43.4342L13.0072 31.7535C12.3397 31.086 11.4498 30.641 10.5598 30.641C8.55743 30.641 7 32.1985 7 34.2009C7 35.2021 7.33373 36.092 8.0012 36.7595L22.2405 50.9988C22.908 51.6663 23.7979 52 24.7991 52C25.6891 52 26.5791 51.6663 27.2465 50.9988L55.7252 9.11846Z" fill="white"/>
</g>
<defs>
<filter id="filter0_d_2258_4615" x="0" y="0" width="63.8359" height="63" filterUnits="userSpaceOnUse" color-interpolation-filters="sRGB">
<feFlood flood-opacity="0" result="BackgroundImageFix"/>
<feColorMatrix in="SourceAlpha" type="matrix" values="0 0 0 0 0 0 0 0 0 0 0 0 0 0 0 0 0 0 127 0" result="hardAlpha"/>
<feOffset dy="4"/>
<feGaussianBlur stdDeviation="2"/>
<feComposite in2="hardAlpha" operator="out"/>
<feColorMatrix type="matrix" values="0 0 0 0 1 0 0 0 0 1 0 0 0 0 1 0 0 0 1 0"/>
<feBlend mode="normal" in2="BackgroundImageFix" result="effect1_dropShadow_2258_4615"/>
<feBlend mode="normal" in="SourceGraphic" in2="effect1_dropShadow_2258_4615" result="shape"/>
</filter>
</defs>
</svg>
