<svg width="80" height="80" viewBox="0 0 80 80" fill="none" xmlns="http://www.w3.org/2000/svg">
<circle cx="40" cy="40" r="40" fill="#FDF199"/>
<path d="M39.9375 44C36.375 44 33.4375 41.125 33.5 37.5C33.5 33.9375 36.375 31 39.9375 31C43.5 31 46.4375 33.9375 46.4375 37.5C46.4375 41.125 43.5625 44 39.9375 44ZM39.9375 34C38.0625 34 36.4375 35.625 36.4375 37.5C36.4375 39.4375 38.0625 41 39.9375 41C41.875 41 43.4375 39.4375 43.4375 37.5C43.4375 35.625 41.875 34 39.9375 34ZM52 34C49.1875 34 47 31.8125 47 29C47 26.25 49.1875 24 52 24C54.75 24 57 26.25 57 29C57 31.8125 54.75 34 52 34ZM43.0625 46C48 46 52 49.75 52 54.375C52 55.3125 51.1875 56 50.1875 56H29.75C28.75 56 28 55.3125 28 54.375C28 49.75 31.9375 46 36.875 46H43.0625ZM31.125 53H48.8125C48.125 50.75 45.8125 49 43.0625 49H36.8125C34.0625 49 31.75 50.75 31.125 53ZM54.4375 36C57.5 36 60 38.625 60 41.875C60 42.5 59.5 43 58.875 43H46.375C47.6875 41.5625 48.4375 39.625 48.4375 37.5C48.4375 37.1875 48.375 36.875 48.375 36.5625C49.0625 36.25 49.8125 36 50.625 36H54.4375ZM31.4375 37.5C31.4375 39.625 32.25 41.5625 33.5625 43H21.0625C20.4375 43 20 42.5 20 41.875C20 38.625 22.4375 36 25.5 36H29.3125C30.125 36 30.875 36.1875 31.5625 36.5625C31.5 36.875 31.4375 37.1875 31.4375 37.5ZM28 34C25.1875 34 23 31.8125 23 29C23 26.25 25.1875 24 28 24C30.75 24 33 26.25 33 29C33 31.8125 30.75 34 28 34Z" fill="#01163F"/>
<path d="M40.2284 4.97495C54.5951 7.04439 68.2451 17.8972 72.6423 31.8722C76.8562 45.2611 71.0895 60.4416 59.9562 68.6555C48.4756 77.1222 32.6617 76.9777 21.0145 68.8916C9.7034 61.0388 3.81729 46.7194 6.67562 33.1916C9.48673 19.8888 20.6923 10.1388 34.0062 8.21106C35.759 7.95828 37.5312 7.84161 39.3006 7.83328C39.7617 7.83328 40.4645 7.7555 40.8228 7.42495C41.0701 7.19439 41.1923 6.93606 40.6923 6.93884C26.8478 6.99717 12.8367 13.7916 6.81729 26.7499C0.672843 39.9777 4.30896 56.1944 14.7395 66.1583C25.4312 76.3722 41.5895 78.5972 54.9617 72.6055C68.0451 66.7444 76.8812 53.1388 76.1451 38.6972C75.3423 22.9638 61.9506 9.71939 47.4367 5.3305C45.6562 4.79161 43.8367 4.39439 41.9951 4.1305C41.5034 4.06106 40.9284 4.16106 40.4895 4.39995C40.3451 4.47773 39.7228 4.89995 40.2312 4.97495" fill="#07144A"/>
</svg>
