<svg width="80" height="80" viewBox="0 0 80 80" fill="none" xmlns="http://www.w3.org/2000/svg">
<circle cx="40" cy="40" r="40" fill="#F5AC2B"/>
<path d="M54.5625 37.4375C55.4375 38 56 39 56 40C56 41.0625 55.4375 42.0625 54.5625 42.5625L36.5625 53.5625C36.0625 53.875 35.5 54 35 54C33.25 54 32 52.625 32 51V29C32 27.4375 33.25 26.0625 34.9375 26C35.5 26 36.0625 26.1875 36.5625 26.4375L54.5625 37.4375ZM35 51L53 40L34.9375 29.0625L35 51Z" fill="#01163F"/>
<path d="M40.2284 4.97501C54.5951 7.04445 68.2451 17.8972 72.6423 31.8722C76.8562 45.2611 71.0895 60.4417 59.9562 68.6556C48.4756 77.1222 32.6617 76.9778 21.0145 68.8917C9.7034 61.0389 3.81729 46.7195 6.67562 33.1917C9.48673 19.8889 20.6923 10.1389 34.0062 8.21112C35.759 7.95834 37.5312 7.84168 39.3006 7.83334C39.7617 7.83334 40.4645 7.75556 40.8228 7.42501C41.0701 7.19445 41.1923 6.93612 40.6923 6.9389C26.8478 6.99723 12.8367 13.7917 6.81729 26.75C0.672843 39.9778 4.30896 56.1945 14.7395 66.1583C25.4312 76.3722 41.5895 78.5972 54.9617 72.6056C68.0451 66.7445 76.8812 53.1389 76.1451 38.6972C75.3423 22.9639 61.9506 9.71945 47.4367 5.33056C45.6562 4.79168 43.8367 4.39445 41.9951 4.13056C41.5034 4.06112 40.9284 4.16112 40.4895 4.40001C40.3451 4.47779 39.7228 4.90001 40.2312 4.97501" fill="#01163F"/>
</svg>
