<svg width="80" height="80" viewBox="0 0 80 80" fill="none" xmlns="http://www.w3.org/2000/svg">
<circle cx="40" cy="40" r="40" fill="#F5AC2B"/>
<path d="M55 34.75C56.625 35 57.3125 37 56.125 38.25L49.5 44.625L51.0625 53.6875C51.25 55 50.25 56.0625 49.0625 56.0625C48.75 56.0625 48.4375 55.9375 48.125 55.8125L40 51.5L31.8125 55.8125C31.5 55.9375 31.1875 56 30.875 56C29.6875 56 28.6875 55 28.875 53.6875L30.4375 44.5625L23.8125 38.1875C22.625 37 23.3125 35 24.9375 34.75L34.0625 33.4375L38.1875 25.125C38.5625 24.375 39.25 24 39.9375 24C40.6875 24 41.375 24.375 41.75 25.125L45.875 33.4375L55 34.75ZM46.375 44.0625C46.3125 43.75 46.4375 43.4375 46.625 43.1875L52.5625 37.4375L44.375 36.25C44.0625 36.1875 43.75 36 43.625 35.6875L40 28.25L36.3125 35.6875C36.1875 36 35.875 36.1875 35.5625 36.25L27.375 37.4375L33.3125 43.1875C33.5 43.4375 33.625 43.75 33.5625 44.0625L32.1875 52.1875L39.5 48.375C39.8125 48.1875 40.125 48.1875 40.4375 48.375L47.75 52.1875L46.375 44.0625Z" fill="#01163F"/>
<path d="M40.2284 4.97495C54.5951 7.04439 68.2451 17.8972 72.6423 31.8722C76.8562 45.2611 71.0895 60.4416 59.9562 68.6555C48.4756 77.1222 32.6617 76.9777 21.0145 68.8916C9.7034 61.0388 3.81729 46.7194 6.67562 33.1916C9.48673 19.8888 20.6923 10.1388 34.0062 8.21106C35.759 7.95828 37.5312 7.84161 39.3006 7.83328C39.7617 7.83328 40.4645 7.7555 40.8228 7.42495C41.0701 7.19439 41.1923 6.93606 40.6923 6.93884C26.8478 6.99717 12.8367 13.7916 6.81729 26.7499C0.672843 39.9777 4.30896 56.1944 14.7395 66.1583C25.4312 76.3722 41.5895 78.5972 54.9617 72.6055C68.0451 66.7444 76.8812 53.1388 76.1451 38.6972C75.3423 22.9638 61.9506 9.71939 47.4367 5.3305C45.6562 4.79161 43.8367 4.39439 41.9951 4.1305C41.5034 4.06106 40.9284 4.16106 40.4895 4.39995C40.3451 4.47773 39.7228 4.89995 40.2312 4.97495" fill="#07144A"/>
</svg>
