<svg width="153" height="8" viewBox="0 0 153 8" fill="none" xmlns="http://www.w3.org/2000/svg">
<g clip-path="url(#clip0_715_3123)">
<path d="M0 6.01538C0.746259 2.40308 2.25241 2.48308 3.49276 2.39077C8.40989 2.01538 13.3304 1.86154 18.251 1.71385C26.3508 1.46769 34.4506 1.28308 42.5504 1.08615C51.2738 0.876923 59.9972 0.48923 68.7205 0.513846C82.8381 0.556923 96.9557 0.938461 111.077 1.04923C114.975 1.08 118.873 0.483077 122.768 0.513846C129.505 0.563077 136.242 0.846153 142.978 1.10461C145.514 1.20308 148.049 1.48 150.584 1.72C151.02 1.76308 151.484 1.91692 151.869 2.26769C152.261 2.61846 152.567 3.27692 152.911 3.8C152.52 4.42154 152.158 5.48615 151.729 5.59077C149.456 6.16308 147.166 6.82154 144.876 6.85846C127.293 7.16 109.714 7.51077 92.1306 7.48C62.3961 7.43077 32.665 7.11692 2.93051 6.87077C2.0241 6.86462 1.11428 6.34769 0.00340757 6.00923L0 6.01538Z" fill="#5D83FA"/>
</g>
<defs>
<clipPath id="clip0_715_3123">
<rect width="153" height="8" fill="white"/>
</clipPath>
</defs>
</svg>
