<svg width="226" height="12" viewBox="0 0 226 12" fill="none" xmlns="http://www.w3.org/2000/svg">
<g id="Tryb_izolacji" clip-path="url(#clip0_957_4411)">
<path id="Vector" d="M212.561 5.62024C213.013 8.49809 209.646 9.18216 206.253 8.78789C205.749 8.73061 205.235 8.66995 204.726 8.65984C199.478 8.5419 194.214 8.53853 188.977 8.29927C164.119 7.16026 139.225 7.75672 114.347 7.68596C105.405 7.659 96.4623 8.06675 87.5252 8.33296C82.0434 8.49809 76.5669 8.75757 71.0903 8.99682C63.738 9.32033 56.3909 9.66068 49.0386 10.0078C42.1228 10.3347 35.2017 10.6716 28.2859 11.0187C21.713 11.3456 15.1505 11.7466 8.57237 11.9892C6.66545 12.06 4.51951 11.8612 3.7661 10.3616C3.13738 9.1114 4.4104 7.99261 6.90966 7.75672C10.3702 7.42985 13.8619 7.25462 17.3484 7.04569C23.8901 6.65142 30.4318 6.28073 36.9736 5.62361H34.573C28.0781 5.62361 21.5831 5.66405 15.0881 5.61013C11.3106 5.57981 7.52279 5.45849 3.7609 5.24619C2.76847 5.18891 1.5734 4.77442 0.955076 4.27231C0.191267 3.659 0.295187 2.82665 1.92153 2.68848C3.95315 2.51325 6.00556 2.38183 8.05277 2.33802C14.5997 2.19649 21.1518 2.13246 27.6987 1.98082C36.0383 1.78874 44.3674 1.52926 52.707 1.31696C62.1688 1.0777 71.6307 0.855291 81.0926 0.642992C86.777 0.514938 92.4562 0.353185 98.1406 0.316117C119.756 0.171214 141.376 -0.0141271 162.991 -0.000647765C173.841 0.00609191 184.69 0.343076 195.529 0.659841C202.803 0.872141 210.062 1.28326 217.321 1.66405C219.253 1.76515 221.181 2.03137 223.067 2.33465C224.616 2.58065 225.65 3.24788 225.437 4.38014C225.218 5.5697 223.836 5.63709 222.361 5.62698C219.17 5.6034 215.975 5.62024 212.556 5.62024H212.561Z" fill="#5D83FA"/>
</g>
<defs>
<clipPath id="clip0_957_4411">
<rect width="224.97" height="12" fill="white" transform="translate(0.5)"/>
</clipPath>
</defs>
</svg>
