<svg width="180" height="7" viewBox="0 0 180 7" fill="none" xmlns="http://www.w3.org/2000/svg">
<path d="M0 5.50269C0.878455 1.89038 2.65141 1.97038 4.11149 1.87807C9.89967 1.50269 15.6919 1.34884 21.484 1.20115C31.0187 0.954997 40.5533 0.770381 50.088 0.573458C60.3567 0.364227 70.6254 -0.023465 80.8941 0.00115042C97.5125 0.0442273 114.131 0.425766 130.753 0.536535C135.342 0.567304 139.931 -0.0296188 144.516 0.00115042C152.446 0.0503812 160.376 0.333458 168.306 0.59192C171.291 0.690381 174.275 0.967304 177.259 1.2073C177.773 1.25038 178.318 1.40423 178.772 1.755C179.233 2.10577 179.594 2.76423 179.999 3.2873C179.538 3.90884 179.113 4.97346 178.607 5.07807C175.932 5.65038 173.236 6.30884 170.541 6.34577C149.843 6.6473 129.149 6.99807 108.451 6.9673C73.4493 6.91807 38.4515 6.60423 3.44964 6.35807C2.38266 6.35192 1.31167 5.835 0.00401121 5.49654L0 5.50269Z" fill="#F5AC2B"/>
</svg>
