<svg width="276" height="8" viewBox="0 0 276 8" fill="none" xmlns="http://www.w3.org/2000/svg">
<path d="M0 6.34217C1.34221 2.72986 4.05113 2.80986 6.28201 2.71755C15.1259 2.34217 23.9758 2.18832 32.8258 2.04063C47.394 1.79447 61.9621 1.60986 76.5302 1.41294C92.2199 1.2037 107.91 0.816013 123.599 0.840628C148.991 0.883705 174.383 1.26524 199.78 1.37601C206.792 1.40678 213.803 0.809859 220.808 0.840628C232.925 0.889859 245.041 1.17294 257.158 1.4314C261.718 1.52986 266.278 1.80678 270.837 2.04678C271.622 2.08986 272.455 2.2437 273.148 2.59447C273.853 2.94524 274.404 3.6037 275.023 4.12678C274.319 4.74832 273.669 5.81294 272.897 5.91755C268.809 6.48986 264.69 7.14832 260.572 7.18524C228.947 7.48678 197.329 7.83755 165.704 7.80678C112.224 7.75755 58.7506 7.44371 5.27076 7.19755C3.6405 7.1914 2.00412 6.67447 0.00612879 6.33601L0 6.34217Z" fill="#F5AC2B"/>
</svg>
