<svg width="80" height="80" viewBox="0 0 80 80" fill="none" xmlns="http://www.w3.org/2000/svg">
<circle cx="40" cy="40" r="40" fill="#FFD371"/>
<path d="M56.8125 30.4375C57.5625 30.875 58 31.6875 58 32.5V47.5C58 48.375 57.5625 49.1875 56.8125 49.625C56.4375 49.875 55.9375 50.0625 55.4375 50.0625C55.125 50.0625 54.75 49.9375 54.4375 49.8125L48 46.8125V48C48 50.25 46.1875 52 44 52H26C23.75 52 22 50.25 22 48V32C22 29.8125 23.75 28 26 28H44C46.1875 28 48 29.8125 48 32V33.1875L54.4375 30.25C55.1875 29.875 56.125 29.9375 56.8125 30.4375ZM45 48V32C45 31.5 44.5 31 44 31H26C25.4375 31 25 31.5 25 32V48C25 48.5625 25.4375 49 26 49H44C44.5 49 45 48.5625 45 48ZM55 46.75V33.3125L48 36.5V43.5625L55 46.75Z" fill="#01163F"/>
<path d="M40.2284 4.97495C54.5951 7.04439 68.2451 17.8972 72.6423 31.8722C76.8562 45.2611 71.0895 60.4416 59.9562 68.6555C48.4756 77.1222 32.6617 76.9777 21.0145 68.8916C9.7034 61.0388 3.81729 46.7194 6.67562 33.1916C9.48673 19.8888 20.6923 10.1388 34.0062 8.21106C35.759 7.95828 37.5312 7.84161 39.3006 7.83328C39.7617 7.83328 40.4645 7.7555 40.8228 7.42495C41.0701 7.19439 41.1923 6.93606 40.6923 6.93884C26.8478 6.99717 12.8367 13.7916 6.81729 26.7499C0.672843 39.9777 4.30896 56.1944 14.7395 66.1583C25.4312 76.3722 41.5895 78.5972 54.9617 72.6055C68.0451 66.7444 76.8812 53.1388 76.1451 38.6972C75.3423 22.9638 61.9506 9.71939 47.4367 5.3305C45.6562 4.79161 43.8367 4.39439 41.9951 4.1305C41.5034 4.06106 40.9284 4.16106 40.4895 4.39995C40.3451 4.47773 39.7228 4.89995 40.2312 4.97495" fill="#07144A"/>
</svg>
